<svg width="1584" height="396" viewBox="0 0 1584 396" fill="none" xmlns="http://www.w3.org/2000/svg">
<rect width="1584" height="396" fill="#F5F5F5"/>
<g id="Awesome banner" clip-path="url(#clip0_0_1)">
<rect width="1584" height="396" fill="url(#paint0_linear_0_1)"/>
<ellipse id="Ellipse 2" cx="323" cy="64" rx="285" ry="288" fill="url(#paint1_linear_0_1)" fill-opacity="0.1"/>
<g id="copyright">
<path d="M75.95 334.52L72.30 334.52L72.30 311.16L77.20 311.16L83.70 330.04Q83.60 329.02 83.50 327.62Q83.41 326.23 83.33 324.79Q83.25 323.35 83.25 322.23L83.25 311.16L86.90 311.16L86.90 334.52L82 334.52L75.57 315.64Q75.63 316.57 75.73 317.88Q75.82 319.19 75.89 320.57Q75.95 321.94 75.95 323.10L75.95 334.52M98.80 334.84Q96.46 334.84 94.67 333.96Q92.88 333.08 91.89 331.53Q90.90 329.98 90.90 327.93Q90.90 325.78 92.13 324.18Q93.36 322.58 95.34 322.17L95.34 322.10Q93.65 321.75 92.61 320.38Q91.57 319 91.57 317.11Q91.57 315.26 92.48 313.85Q93.39 312.44 95.02 311.64Q96.66 310.84 98.80 310.84Q100.94 310.84 102.59 311.64Q104.24 312.44 105.15 313.85Q106.06 315.26 106.06 317.11Q106.06 319 105.01 320.38Q103.95 321.75 102.26 322.10L102.26 322.17Q104.24 322.58 105.47 324.18Q106.70 325.78 106.70 327.93Q106.70 329.98 105.71 331.53Q104.72 333.08 102.93 333.96Q101.14 334.84 98.80 334.84M98.80 320.73Q100.30 320.73 101.23 319.82Q102.16 318.90 102.16 317.46Q102.16 315.99 101.23 315.08Q100.30 314.17 98.80 314.17Q97.30 314.17 96.37 315.08Q95.44 315.99 95.44 317.46Q95.44 318.90 96.37 319.82Q97.30 320.73 98.80 320.73M98.80 331.45Q100.56 331.45 101.68 330.42Q102.80 329.40 102.80 327.74Q102.80 326.04 101.68 325Q100.56 323.96 98.80 323.96Q97.04 323.96 95.92 325Q94.80 326.04 94.80 327.74Q94.80 329.40 95.92 330.42Q97.04 331.45 98.80 331.45M114.35 334.52L110.70 334.52L110.70 311.16L115.60 311.16L122.10 330.04Q122 329.02 121.90 327.62Q121.81 326.23 121.73 324.79Q121.65 323.35 121.65 322.23L121.65 311.16L125.30 311.16L125.30 334.52L120.40 334.52L113.97 315.64Q114.03 316.57 114.13 317.88Q114.22 319.19 114.29 320.57Q114.35 321.94 114.35 323.10" fill="white" fill-opacity="0.9"/>
<path d="M161.48 325.24L151.24 325.24L151.24 322.68L161.48 322.68" fill="white" fill-opacity="0.9"/>
<path d="M195.02 334.84Q191.82 334.84 189.96 333.05Q188.11 331.26 188.11 328.12L188.11 317.56Q188.11 314.42 189.96 312.63Q191.82 310.84 195.02 310.84Q198.15 310.84 200.01 312.65Q201.87 314.46 201.87 317.56L198.99 317.56Q198.99 315.58 197.95 314.50Q196.91 313.43 195.02 313.43Q193.13 313.43 192.06 314.50Q190.99 315.58 190.99 317.56L190.99 328.12Q190.99 330.10 192.06 331.18Q193.13 332.25 195.02 332.25Q196.91 332.25 197.95 331.18Q198.99 330.10 198.99 328.12L201.87 328.12Q201.87 331.22 200.01 333.03Q198.15 334.84 195.02 334.84" fill="white" fill-opacity="0.9"/>
<path d="M213.96 334.84Q210.83 334.84 209 333.02Q207.18 331.19 207.18 327.80L207.18 317.88Q207.18 314.49 209 312.66Q210.83 310.84 213.96 310.84Q217.10 310.84 218.92 312.66Q220.75 314.49 220.75 317.85L220.75 327.80Q220.75 331.19 218.92 333.02Q217.10 334.84 213.96 334.84M213.96 332.25Q215.85 332.25 216.86 331.18Q217.87 330.10 217.87 328.12L217.87 317.56Q217.87 315.58 216.86 314.50Q215.85 313.43 213.96 313.43Q212.11 313.43 211.08 314.50Q210.06 315.58 210.06 317.56L210.06 328.12Q210.06 330.10 211.08 331.18Q212.11 332.25 213.96 332.25" fill="white" fill-opacity="0.9"/>
<path d="M228.65 334.52L225.87 334.52L225.87 311.16L230.12 311.16L233.10 321.27L236.20 311.16L240.46 311.16L240.46 334.52L237.67 334.52L237.67 323.48Q237.67 321.91 237.72 319.88Q237.77 317.85 237.87 315.77Q237.96 313.69 238.09 312.02L234.31 324.09L231.82 324.09L228.20 312.31Q228.46 314.68 228.55 317.50Q228.65 320.31 228.65 323.48" fill="white" fill-opacity="0.9"/>
<path d="M247.85 334.52L245.07 334.52L245.07 311.16L249.32 311.16L252.30 321.27L255.40 311.16L259.66 311.16L259.66 334.52L256.87 334.52L256.87 323.48Q256.87 321.91 256.92 319.88Q256.97 317.85 257.07 315.77Q257.16 313.69 257.29 312.02L253.51 324.09L251.02 324.09L247.40 312.31Q247.66 314.68 247.75 317.50Q247.85 320.31 247.85 323.48" fill="white" fill-opacity="0.9"/>
<path d="M271.56 334.84Q268.30 334.84 266.57 333.03Q264.84 331.22 264.84 328.12L264.84 311.16L267.72 311.16L267.72 328.12Q267.72 330.04 268.67 331.16Q269.61 332.28 271.56 332.28Q273.48 332.28 274.44 331.16Q275.40 330.04 275.40 328.12L275.40 311.16L278.28 311.16L278.28 328.12Q278.28 331.26 276.57 333.05Q274.86 334.84 271.56 334.84" fill="white" fill-opacity="0.9"/>
<path d="M286.83 334.52L284.04 334.52L284.04 311.16L287.88 311.16L295.02 331.16Q294.95 330.36 294.87 329.19Q294.79 328.02 294.75 326.73Q294.70 325.43 294.70 324.28L294.70 311.16L297.48 311.16L297.48 334.52L293.64 334.52L286.54 314.52Q286.60 315.29 286.67 316.46Q286.73 317.62 286.78 318.92Q286.83 320.22 286.83 321.40" fill="white" fill-opacity="0.9"/>
<path d="M316.20 334.52L303.72 334.52L303.72 331.90L308.49 331.90L308.49 313.78L303.72 313.78L303.72 311.16L316.20 311.16L316.20 313.78L311.43 313.78L311.43 331.90L316.20 331.90" fill="white" fill-opacity="0.9"/>
<path d="M330.60 334.52L327.72 334.52L327.72 313.78L321.32 313.78L321.32 311.16L337 311.16L337 313.78L330.60 313.78" fill="white" fill-opacity="0.9"/>
<path d="M349.80 334.52L346.92 334.52L346.92 325.78L339.88 311.16L342.95 311.16L347.50 320.76Q347.88 321.56 348.11 322.12Q348.33 322.68 348.39 322.94Q348.46 322.68 348.70 322.12Q348.94 321.56 349.32 320.76L353.87 311.16L356.84 311.16L349.80 325.78" fill="white" fill-opacity="0.9"/>
<path d="M382.83 334.52L380.04 334.52L380.04 311.16L383.88 311.16L391.02 331.16Q390.95 330.36 390.87 329.19Q390.79 328.02 390.75 326.73Q390.70 325.43 390.70 324.28L390.70 311.16L393.48 311.16L393.48 334.52L389.64 334.52L382.54 314.52Q382.60 315.29 382.67 316.46Q382.73 317.62 382.78 318.92Q382.83 320.22 382.83 321.40" fill="white" fill-opacity="0.9"/>
<path d="M405.96 334.84Q402.83 334.84 401 333.02Q399.18 331.19 399.18 327.80L399.18 317.88Q399.18 314.49 401 312.66Q402.83 310.84 405.96 310.84Q409.10 310.84 410.92 312.66Q412.75 314.49 412.75 317.85L412.75 327.80Q412.75 331.19 410.92 333.02Q409.10 334.84 405.96 334.84M405.96 332.25Q407.85 332.25 408.86 331.18Q409.87 330.10 409.87 328.12L409.87 317.56Q409.87 315.58 408.86 314.50Q407.85 313.43 405.96 313.43Q404.11 313.43 403.08 314.50Q402.06 315.58 402.06 317.56L402.06 328.12Q402.06 330.10 403.08 331.18Q404.11 332.25 405.96 332.25" fill="white" fill-opacity="0.9"/>
<path d="M424.55 334.52L418.51 334.52L418.51 311.16L424.55 311.16Q426.83 311.16 428.47 312.02Q430.12 312.89 431.03 314.46Q431.95 316.02 431.95 318.17L431.95 327.48Q431.95 329.62 431.03 331.21Q430.12 332.79 428.47 333.66Q426.83 334.52 424.55 334.52M421.39 313.72L421.39 331.96L424.55 331.96Q426.67 331.96 427.87 330.78Q429.07 329.59 429.07 327.48L429.07 318.17Q429.07 316.09 427.87 314.90Q426.67 313.72 424.55 313.72" fill="white" fill-opacity="0.9"/>
<path d="M451.40 334.52L437.96 334.52L437.96 311.16L451.40 311.16L451.40 313.78L440.81 313.78L440.81 321.02L450.28 321.02L450.28 323.58L440.81 323.58L440.81 331.90L451.40 331.90" fill="white" fill-opacity="0.9"/>
<path d="M463.69 334.84Q460.30 334.84 458.28 333.05Q456.27 331.26 456.27 328.12L459.15 328.12Q459.15 330.07 460.39 331.18Q461.64 332.28 463.69 332.28Q465.67 332.28 466.86 331.13Q468.04 329.98 468.04 328.12Q468.04 326.71 467.29 325.67Q466.54 324.63 465.13 324.25L461.58 323.26Q459.37 322.62 458.11 320.97Q456.84 319.32 456.84 317.08Q456.84 315.22 457.67 313.82Q458.51 312.41 460.01 311.62Q461.51 310.84 463.47 310.84Q465.45 310.84 466.97 311.62Q468.49 312.41 469.35 313.80Q470.22 315.19 470.22 317.02L467.34 317.02Q467.34 315.42 466.25 314.41Q465.16 313.40 463.47 313.40Q461.77 313.40 460.71 314.41Q459.66 315.42 459.66 317.02Q459.66 318.30 460.35 319.21Q461.03 320.12 462.28 320.47L465.93 321.50Q468.27 322.14 469.56 323.91Q470.86 325.69 470.86 328.12Q470.86 331.19 468.91 333.02Q466.95 334.84 463.69 334.84" fill="white" fill-opacity="0.9"/>
</g>
<path d="M82.48 197.64L72.40 197.64L72.40 180.12L82.48 180.12L82.48 182.09L74.54 182.09L74.54 187.51L81.64 187.51L81.64 189.43L74.54 189.43L74.54 195.67L82.48 195.67" fill="white" fill-opacity="0.7"/>
<path d="M92.68 197.64L90.52 197.64L90.52 182.09L85.72 182.09L85.72 180.12L97.48 180.12L97.48 182.09L92.68 182.09" fill="white" fill-opacity="0.7"/>
<path d="M106.10 197.88Q103.55 197.88 102.04 196.54Q100.53 195.19 100.53 192.84L102.69 192.84Q102.69 194.30 103.62 195.13Q104.56 195.96 106.10 195.96Q107.58 195.96 108.47 195.10Q109.36 194.23 109.36 192.84Q109.36 191.78 108.80 191Q108.23 190.22 107.18 189.94L104.51 189.19Q102.86 188.71 101.91 187.48Q100.96 186.24 100.96 184.56Q100.96 183.17 101.58 182.11Q102.21 181.06 103.34 180.47Q104.46 179.88 105.93 179.88Q107.42 179.88 108.56 180.47Q109.70 181.06 110.34 182.10Q110.99 183.14 110.99 184.51L108.83 184.51Q108.83 183.31 108.02 182.56Q107.20 181.80 105.93 181.80Q104.66 181.80 103.86 182.56Q103.07 183.31 103.07 184.51Q103.07 185.47 103.59 186.16Q104.10 186.84 105.04 187.10L107.78 187.87Q109.53 188.35 110.50 189.68Q111.47 191.02 111.47 192.84Q111.47 195.14 110.01 196.51Q108.54 197.88 106.10 197.88" fill="white" fill-opacity="0.7"/>
<path d="M125.08 197.64L115.72 197.64L115.72 195.67L119.30 195.67L119.30 182.09L115.72 182.09L115.72 180.12L125.08 180.12L125.08 182.09L121.50 182.09L121.50 195.67L125.08 195.67" fill="white" fill-opacity="0.7"/>
<path d="M149.30 197.88Q146.90 197.88 145.50 196.54Q144.11 195.19 144.11 192.84L144.11 184.92Q144.11 182.57 145.50 181.22Q146.90 179.88 149.30 179.88Q151.65 179.88 153.04 181.24Q154.43 182.59 154.43 184.92L152.27 184.92Q152.27 183.43 151.49 182.63Q150.71 181.82 149.30 181.82Q147.88 181.82 147.08 182.62Q146.27 183.41 146.27 184.90L146.27 192.84Q146.27 194.33 147.08 195.14Q147.88 195.96 149.30 195.96Q150.71 195.96 151.49 195.14Q152.27 194.33 152.27 192.84L152.27 190.44L148.72 190.44L148.72 188.47L154.43 188.47L154.43 192.84Q154.43 195.17 153.04 196.52Q151.65 197.88 149.30 197.88" fill="white" fill-opacity="0.7"/>
<path d="M163.70 197.88Q161.15 197.88 159.64 196.54Q158.13 195.19 158.13 192.84L160.29 192.84Q160.29 194.30 161.22 195.13Q162.16 195.96 163.70 195.96Q165.18 195.96 166.07 195.10Q166.96 194.23 166.96 192.84Q166.96 191.78 166.40 191Q165.83 190.22 164.78 189.94L162.11 189.19Q160.46 188.71 159.51 187.48Q158.56 186.24 158.56 184.56Q158.56 183.17 159.18 182.11Q159.81 181.06 160.94 180.47Q162.06 179.88 163.53 179.88Q165.02 179.88 166.16 180.47Q167.30 181.06 167.94 182.10Q168.59 183.14 168.59 184.51L166.43 184.51Q166.43 183.31 165.62 182.56Q164.80 181.80 163.53 181.80Q162.26 181.80 161.46 182.56Q160.67 183.31 160.67 184.51Q160.67 185.47 161.19 186.16Q161.70 186.84 162.64 187.10L165.38 187.87Q167.13 188.35 168.10 189.68Q169.07 191.02 169.07 192.84Q169.07 195.14 167.61 196.51Q166.14 197.88 163.70 197.88" fill="white" fill-opacity="0.7"/>
<path d="M189.02 197.64L186.93 197.64L186.93 180.12L190.12 180.12L192.35 187.70L194.68 180.12L197.87 180.12L197.87 197.64L195.78 197.64L195.78 189.36Q195.78 188.18 195.82 186.66Q195.86 185.14 195.93 183.58QNaN 182.02 196.10 180.77L193.26 189.82L191.39 189.82L188.68 180.98Q188.87 182.76 188.94 184.87Q189.02 186.98 189.02 189.36" fill="white" fill-opacity="0.7"/>
<path d="M212.08 197.64LNaN 197.64LNaN 180.12L212.08 180.12L212.08 182.09L204.14 182.09L204.14 187.51L211.24 187.51L211.24 189.43L204.14 189.43L204.14 195.67L212.08 195.67" fill="white" fill-opacity="0.7"/>
<path d="M221.39 197.88Q218.99 197.88 217.60 196.54Q216.21 195.19 216.21 192.84L216.21 184.92Q216.21 182.57 217.60 181.22Q218.99 179.88 221.39 179.88Q223.74 179.88 225.14 181.24Q226.53 182.59 226.53 184.92L224.37 184.92Q224.37 183.43 223.59 182.63Q222.81 181.82 221.39 181.82Q219.98 181.82 219.17 182.63Q218.37 183.43 218.37 184.92L218.37 192.84Q218.37 194.33 219.17 195.13Q219.98 195.94 221.39 195.94Q222.81 195.94 223.59 195.13Q224.37 194.33 224.37 192.84L226.53 192.84Q226.53 195.17 225.14 196.52Q223.74 197.88 221.39 197.88" fill="white" fill-opacity="0.7"/>
<path d="MNaN 197.88Q247.58 197.88 246.15 196.48Q244.72 195.07 244.72 192.72L244.72 185.04Q244.72 182.69 246.15 181.28Q247.58 179.88 NaN 179.88Q252.42 179.88 253.85 181.28Q255.28 182.69 255.28 185.04L255.28 192.72Q255.28 194.28 254.63 195.44Q253.98 196.61 252.80 197.24Q251.61 197.88 NaN 197.88MNaN 196.03Q251.44 196.03 252.32 195.11Q253.19 194.18 253.19 192.72L253.19 185.04Q253.19 183.58 252.32 182.65Q251.44 181.73 NaN 181.73Q248.56 181.73 247.68 182.65Q246.81 183.58 246.81 185.04L246.81 192.72Q246.81 194.18 247.68 195.11Q248.56 196.03 NaN 196.03MNaN 190.20Q249.35 190.20 248.96 189.84Q248.56 189.48 248.56 188.81Q248.56 188.16 248.96 187.81Q249.35 187.46 NaN 187.46Q250.65 187.46 251.04 187.81Q251.44 188.16 251.44 188.81Q251.44 189.48 251.04 189.84Q250.65 190.20 NaN 190.20" fill="white" fill-opacity="0.7"/>
<path d="M270.16 197.64L259.36 197.64L259.36 195.67L264.11 195.67L264.11 181.99L259.36 185.54L259.36 183.07L263.32 180.12L266.27 180.12L266.27 195.67L270.16 195.67" fill="white" fill-opacity="0.7"/>
<path d="M278.80 197.88Q276.38 197.88 274.95 196.48Q273.52 195.07 273.52 192.72L273.52 185.04Q273.52 182.69 274.95 181.28Q276.38 179.88 278.80 179.88Q281.22 179.88 282.65 181.28Q284.08 182.69 284.08 185.04L284.08 192.72Q284.08 194.28 283.43 195.44Q282.78 196.61 281.60 197.24Q280.41 197.88 278.80 197.88M278.80 196.03Q280.24 196.03 281.12 195.11Q281.99 194.18 281.99 192.72L281.99 185.04Q281.99 183.58 281.12 182.65Q280.24 181.73 278.80 181.73Q277.36 181.73 276.48 182.65Q275.61 183.58 275.61 185.04L275.61 192.72Q275.61 194.18 276.48 195.11Q277.36 196.03 278.80 196.03M278.80 190.20Q278.15 190.20 277.76 189.84Q277.36 189.48 277.36 188.81Q277.36 188.16 277.76 187.81Q278.15 187.46 278.80 187.46Q279.45 187.46 279.84 187.81Q280.24 188.16 280.24 188.81Q280.24 189.48 279.84 189.84Q279.45 190.20 278.80 190.20" fill="white" fill-opacity="0.7"/>
<path d="M297.04 190.68L289.36 190.68L289.36 188.76L297.04 188.76" fill="white" fill-opacity="0.7"/>
<path d="M313.05 197.64L302.46 197.64L302.46 195.65L308.30 189.41Q309.57 188.06 310.10 187.01Q310.62 185.95 310.62 184.94Q310.62 183.50 309.80 182.65Q308.97 181.80 307.55 181.80Q306.09 181.80 305.24 182.68Q304.38 183.55 304.38 185.04L302.22 185.04Q302.30 182.66 303.74 181.27Q305.18 179.88 307.55 179.88Q309.98 179.88 311.40 181.25Q312.83 182.62 312.83 184.97Q312.83 186.22 312.15 187.61Q311.46 189 309.81 190.73L305.08 195.67L313.05 195.67" fill="white" fill-opacity="0.7"/>
<path d="M322 187.75Q321.02 187.75 320.51 187.27Q320.01 186.79 320.01 185.98Q320.01 185.16 320.51 184.68Q321.02 184.20 322 184.20Q322.98 184.20 323.49 184.68Q323.99 185.16 323.99 185.98Q323.99 186.79 323.49 187.27Q322.98 187.75 322 187.75M322 197.88Q321.02 197.88 320.51 197.40Q320.01 196.92 320.01 196.10Q320.01 195.29 320.51 194.81Q321.02 194.33 322 194.33Q322.98 194.33 323.49 194.81Q323.99 195.29 323.99 196.10Q323.99 196.92 323.49 197.40Q322.98 197.88 322 197.88" fill="white" fill-opacity="0.7"/>
<path d="M347.01 197.64L344.80 197.64L349.36 180.12L352.26 180.12L356.80 197.64L354.62 197.64L353.46 192.98L348.16 192.98L347.01 197.64M349.94 185.74L348.59 191.16L353.01 191.16L351.66 185.76Q351.28 184.22 351.06 183.19Q350.85 182.16 350.80 181.85Q350.75 182.16 350.54 183.19Q350.32 184.22 349.94 185.74" fill="white" fill-opacity="0.7"/>
<path d="M362.37 201.96L360.21 201.96L360.21 184.44L362.37 184.44L362.37 186.96L362.39 186.96Q362.56 185.66 363.52 184.93Q364.48 184.20 365.97 184.20Q367.96 184.20 369.14 185.51Q370.31 186.82 370.31 189.10L370.31 192.96Q370.31 195.24 369.14 196.56Q367.96 197.88 365.97 197.88Q364.48 197.88 363.52 197.14Q362.56 196.39 362.39 195.12L362.32 195.12L362.37 198.12L362.37 201.96M365.25 196.01Q366.62 196.01 367.38 195.29Q368.15 194.57 368.15 192.96L368.15 189.12Q368.15 187.49 367.38 186.78Q366.62 186.07 365.25 186.07Q363.93 186.07 363.15 186.91Q362.37 187.75 362.37 189.24L362.37 192.84Q362.37 194.33 363.15 195.17Q363.93 196.01 365.25 196.01" fill="white" fill-opacity="0.7"/>
<path d="M376.77 201.96L374.61 201.96L374.61 184.44L376.77 184.44L376.77 186.96L376.79 186.96Q376.96 185.66 377.92 184.93Q378.88 184.20 380.37 184.20Q382.36 184.20 383.54 185.51Q384.71 186.82 384.71 189.10L384.71 192.96Q384.71 195.24 383.54 196.56Q382.36 197.88 380.37 197.88Q378.88 197.88 377.92 197.14Q376.96 196.39 376.79 195.12L376.72 195.12L376.77 198.12L376.77 201.96M379.65 196.01Q381.02 196.01 381.78 195.29Q382.55 194.57 382.55 192.96L382.55 189.12Q382.55 187.49 381.78 186.78Q381.02 186.07 379.65 186.07Q378.33 186.07 377.55 186.91Q376.77 187.75 376.77 189.24L376.77 192.84Q376.77 194.33 377.55 195.17Q378.33 196.01 379.65 196.01" fill="white" fill-opacity="0.7"/>
<path d="M400 197.64L395.92 197.64Q394.17 197.64 393.12 196.62Q392.08 195.60 392.08 193.92L392.08 182.09L387.52 182.09L387.52 180.12L394.24 180.12L394.24 193.92Q394.24 194.74 394.70 195.20Q395.15 195.67 395.92 195.67L400 195.67" fill="white" fill-opacity="0.7"/>
<path d="M414.52 197.64L403.24 197.64L403.24 195.67L407.92 195.67L407.92 186.41L403.72 186.41L403.72 184.44L410.08 184.44L410.08 195.67L414.52 195.67L414.52 197.64M408.76 182.06Q407.97 182.06 407.51 181.66Q407.06 181.25 407.06 180.55Q407.06 179.83 407.51 179.41Q407.97 178.99 408.76 178.99Q409.55 178.99 410.01 179.41Q410.46 179.83 410.46 180.55Q410.46 181.25 410.01 181.66Q409.55 182.06 408.76 182.06" fill="white" fill-opacity="0.7"/>
<path d="M422.99 197.88Q420.59 197.88 419.15 196.54Q417.71 195.19 417.71 192.84L417.71 189.24Q417.71 186.89 419.15 185.54Q420.59 184.20 422.99 184.20Q425.27 184.20 426.68 185.42Q428.08 186.65 428.15 188.76L425.99 188.76Q425.92 187.49 425.13 186.80Q424.34 186.12 422.99 186.12Q421.58 186.12 420.72 186.92Q419.87 187.73 419.87 189.22L419.87 192.84Q419.87 194.33 420.72 195.14Q421.58 195.96 422.99 195.96Q424.34 195.96 425.13 195.26Q425.92 194.57 425.99 193.32L428.15 193.32Q428.08 195.43 426.68 196.66Q425.27 197.88 422.99 197.88" fill="white" fill-opacity="0.7"/>
<path d="M436.05 197.88Q434.01 197.88 432.81 196.74Q431.61 195.60 431.61 193.75Q431.61 192.53 432.16 191.62Q432.71 190.70 433.70 190.19Q434.68 189.67 435.95 189.67L440.03 189.67L440.03 188.64Q440.03 186.07 437.22 186.07Q435.98 186.07 435.21 186.53Q434.44 186.98 434.39 187.80L432.23 187.80Q432.35 186.24 433.68 185.22Q435.02 184.20 437.22 184.20Q439.62 184.20 440.91 185.35Q442.19 186.50 442.19 188.57L442.19 197.64L440.06 197.64L440.06 195.24L440.01 195.24Q439.82 196.46 438.78 197.17Q437.75 197.88 436.05 197.88M436.58 196.06Q438.16 196.06 439.10 195.29Q440.03 194.52 440.03 193.20L440.03 191.35L436.19 191.35Q435.14 191.35 434.48 191.99Q433.82 192.62 433.82 193.68Q433.82 194.78 434.55 195.42Q435.28 196.06 436.58 196.06" fill="white" fill-opacity="0.7"/>
<path d="M456.76 197.64L452.92 197.64Q451.29 197.64 450.30 196.69Q449.32 195.74 449.32 194.16L449.32 186.41L445.53 186.41L445.53 184.44L449.32 184.44L449.32 180.72L451.48 180.72L451.48 184.44L456.88 184.44L456.88 186.41L451.48 186.41L451.48 194.16Q451.48 194.83 451.88 195.25Q452.27 195.67 452.92 195.67L456.76 195.67" fill="white" fill-opacity="0.7"/>
<path d="M472.12 197.64L460.84 197.64L460.84 195.67L465.52 195.67L465.52 186.41L461.32 186.41L461.32 184.44L467.68 184.44L467.68 195.67L472.12 195.67L472.12 197.64M466.36 182.06Q465.57 182.06 465.11 181.66Q464.66 181.25 464.66 180.55Q464.66 179.83 465.11 179.41Q465.57 178.99 466.36 178.99Q467.15 178.99 467.61 179.41Q468.06 179.83 468.06 180.55Q468.06 181.25 467.61 181.66Q467.15 182.06 466.36 182.06" fill="white" fill-opacity="0.7"/>
<path d="M480.40 197.83Q478.02 197.83 476.62 196.44Q475.22 195.05 475.22 192.55L475.22 189.53Q475.22 187.01 476.61 185.63Q478 184.25 480.40 184.25Q482.80 184.25 484.19 185.63Q485.58 187.01 485.58 189.53L485.58 192.55Q485.58 195.05 484.18 196.44Q482.78 197.83 480.40 197.83M480.40 195.91Q481.82 195.91 482.62 195.12Q483.42 194.33 483.42 192.79L483.42 189.29Q483.42 187.75 482.62 186.96Q481.82 186.17 480.40 186.17Q479.01 186.17 478.19 186.96Q477.38 187.75 477.38 189.29L477.38 192.79Q477.38 194.33 478.19 195.12Q479.01 195.91 480.40 195.91" fill="white" fill-opacity="0.7"/>
<path d="M491.97 197.64L489.81 197.64L489.81 184.44L491.97 184.44L491.97 186.96L491.99 186.96Q492.16 185.64 493.07 184.92Q493.98 184.20 495.50 184.20Q497.49 184.20 498.66 185.42Q499.84 186.65 499.84 188.76L499.84 197.64L497.68 197.64L497.68 189.14Q497.68 187.63 496.92 186.83Q496.17 186.02 494.87 186.02Q493.53 186.02 492.75 186.86Q491.97 187.70 491.97 189.24" fill="white" fill-opacity="0.7"/>
<path d="M529.60 197.64L525.52 197.64Q523.77 197.64 522.72 196.62Q521.68 195.60 521.68 193.92L521.68 182.09L517.12 182.09L517.12 180.12L523.84 180.12L523.84 193.92Q523.84 194.74 524.30 195.20Q524.75 195.67 525.52 195.67L529.60 195.67" fill="white" fill-opacity="0.7"/>
<path d="M544.12 197.64L532.84 197.64L532.84 195.67L537.52 195.67L537.52 186.41L533.32 186.41L533.32 184.44L539.68 184.44L539.68 195.67L544.12 195.67L544.12 197.64M538.36 182.06Q537.57 182.06 537.11 181.66Q536.66 181.25 536.66 180.55Q536.66 179.83 537.11 179.41Q537.57 178.99 538.36 178.99Q539.15 178.99 539.61 179.41Q540.06 179.83 540.06 180.55Q540.06 181.25 539.61 181.66Q539.15 182.06 538.36 182.06" fill="white" fill-opacity="0.7"/>
<path d="M552.52 197.64L550.36 197.64L550.36 188.21L546.52 188.21L546.52 186.24L550.36 186.24L550.36 183.48Q550.36 181.92 551.34 181.02Q552.33 180.12 554.06 180.12L557.92 180.12L557.92 182.09L554.06 182.09Q552.52 182.09 552.52 183.48L552.52 186.24L557.92 186.24L557.92 188.21L552.52 188.21" fill="white" fill-opacity="0.7"/>
<path d="M566.80 197.88Q564.47 197.88 563.04 196.48Q561.62 195.07 561.62 192.60L561.62 189.48Q561.62 187.01 563.04 185.60Q564.47 184.20 566.80 184.20Q568.36 184.20 569.52 184.82Q570.69 185.45 571.34 186.58Q571.98 187.70 571.98 189.24L571.98 191.59L563.73 191.59L563.73 192.84Q563.73 194.30 564.57 195.16Q565.41 196.01 566.80 196.01Q568 196.01 568.78 195.54Q569.56 195.07 569.73 194.28L571.89 194.28Q571.67 195.94 570.28 196.91Q568.89 197.88 566.80 197.88M563.73 189.24L563.73 189.91L569.87 189.91L569.87 189.24Q569.87 187.68 569.07 186.83Q568.26 185.98 566.80 185.98Q565.34 185.98 564.53 186.83Q563.73 187.68 563.73 189.24" fill="white" fill-opacity="0.7"/>
<path d="M581.39 197.88Q578.99 197.88 577.55 196.54Q576.11 195.19 576.11 192.84L576.11 189.24Q576.11 186.89 577.55 185.54Q578.99 184.20 581.39 184.20Q583.67 184.20 585.08 185.42Q586.48 186.65 586.55 188.76L584.39 188.76Q584.32 187.49 583.53 186.80Q582.74 186.12 581.39 186.12Q579.98 186.12 579.12 186.92Q578.27 187.73 578.27 189.22L578.27 192.84Q578.27 194.33 579.12 195.14Q579.98 195.96 581.39 195.96Q582.74 195.96 583.53 195.26Q584.32 194.57 584.39 193.32L586.55 193.32Q586.48 195.43 585.08 196.66Q583.67 197.88 581.39 197.88" fill="white" fill-opacity="0.7"/>
<path d="M594.93 201.96L592.67 201.96L594.62 196.82L589.70 184.44L592.02 184.44L595.14 192.60Q595.34 193.08 595.50 193.61Q595.67 194.14 595.74 194.52Q595.82 194.14 595.98 193.61Q596.15 193.08 596.32 192.60L599.22 184.44L601.50 184.44" fill="white" fill-opacity="0.7"/>
<path d="M610.19 197.88Q607.79 197.88 606.35 196.54Q604.91 195.19 604.91 192.84L604.91 189.24Q604.91 186.89 606.35 185.54Q607.79 184.20 610.19 184.20Q612.47 184.20 613.88 185.42Q615.28 186.65 615.35 188.76L613.19 188.76Q613.12 187.49 612.33 186.80Q611.54 186.12 610.19 186.12Q608.78 186.12 607.92 186.92Q607.07 187.73 607.07 189.22L607.07 192.84Q607.07 194.33 607.92 195.14Q608.78 195.96 610.19 195.96Q611.54 195.96 612.33 195.26Q613.12 194.57 613.19 193.32L615.35 193.32Q615.28 195.43 613.88 196.66Q612.47 197.88 610.19 197.88" fill="white" fill-opacity="0.7"/>
<path d="M630.40 197.64L626.32 197.64Q624.57 197.64 623.52 196.62Q622.48 195.60 622.48 193.92L622.48 182.09L617.92 182.09L617.92 180.12L624.64 180.12L624.64 193.92Q624.64 194.74 625.10 195.20Q625.55 195.67 626.32 195.67L630.40 195.67" fill="white" fill-opacity="0.7"/>
<path d="M638.80 197.88Q636.47 197.88 635.04 196.48Q633.62 195.07 633.62 192.60L633.62 189.48Q633.62 187.01 635.04 185.60Q636.47 184.20 638.80 184.20Q640.36 184.20 641.52 184.82Q642.69 185.45 643.34 186.58Q643.98 187.70 643.98 189.24L643.98 191.59L635.73 191.59L635.73 192.84Q635.73 194.30 636.57 195.16Q637.41 196.01 638.80 196.01Q640 196.01 640.78 195.54Q641.56 195.07 641.73 194.28L643.89 194.28Q643.67 195.94 642.28 196.91Q640.89 197.88 638.80 197.88M635.73 189.24L635.73 189.91L641.87 189.91L641.87 189.24Q641.87 187.68 641.07 186.83Q640.26 185.98 638.80 185.98Q637.34 185.98 636.53 186.83Q635.73 187.68 635.73 189.24" fill="white" fill-opacity="0.7"/>
<path d="M653.27 201.48L651.04 201.48L652.36 194.14L654.95 194.14" fill="white" fill-opacity="0.7"/>
<path d="M679.65 197.64L677.49 197.64L677.49 184.44L679.65 184.44L679.65 186.96L679.70 186.96Q679.86 185.69 680.78 184.94Q681.69 184.20 683.22 184.20Q685.29 184.20 686.40 185.44Q687.52 186.67 687.52 188.95L687.52 190.08L685.36 190.08L685.36 188.95Q685.36 186.07 682.55 186.07Q681.14 186.07 680.39 186.89Q679.65 187.70 679.65 189.24" fill="white" fill-opacity="0.7"/>
<path d="M696.38 197.88Q694.10 197.88 692.73 196.52Q691.36 195.17 691.36 192.84L691.36 184.44L693.52 184.44L693.52 192.84Q693.52 194.28 694.29 195.13Q695.06 195.98 696.38 195.98Q697.72 195.98 698.50 195.13Q699.28 194.28 699.28 192.84L699.28 184.44L701.44 184.44L701.44 192.84Q701.44 195.17 700.05 196.52Q698.66 197.88 696.38 197.88" fill="white" fill-opacity="0.7"/>
<path d="M716.80 197.64L712.72 197.64Q710.97 197.64 709.92 196.62Q708.88 195.60 708.88 193.92L708.88 182.09L704.32 182.09L704.32 180.12L711.04 180.12L711.04 193.92Q711.04 194.74 711.50 195.20Q711.95 195.67 712.72 195.67L716.80 195.67" fill="white" fill-opacity="0.7"/>
<path d="M725.20 197.88Q722.87 197.88 721.44 196.48Q720.02 195.07 720.02 192.60L720.02 189.48Q720.02 187.01 721.44 185.60Q722.87 184.20 725.20 184.20Q726.76 184.20 727.92 184.82Q729.09 185.45 729.74 186.58Q730.38 187.70 730.38 189.24L730.38 191.59L722.13 191.59L722.13 192.84Q722.13 194.30 722.97 195.16Q723.81 196.01 725.20 196.01Q726.40 196.01 727.18 195.54Q727.96 195.07 728.13 194.28L730.29 194.28Q730.07 195.94 728.68 196.91Q727.29 197.88 725.20 197.88M722.13 189.24L722.13 189.91L728.27 189.91L728.27 189.24Q728.27 187.68 727.47 186.83Q726.66 185.98 725.20 185.98Q723.74 185.98 722.93 186.83Q722.13 187.68 722.13 189.24" fill="white" fill-opacity="0.7"/>
<path d="M740.13 197.83L739.07 197.83Q736.86 197.83 735.65 196.84Q734.44 195.84 734.44 194.02L736.60 194.02Q736.60 194.93 737.25 195.44Q737.90 195.96 739.07 195.96L740.13 195.96Q741.33 195.96 741.99 195.43Q742.65 194.90 742.65 193.94Q742.65 192.24 741.09 192.02L737.44 191.50Q736.10 191.30 735.35 190.38Q734.61 189.46 734.61 187.94Q734.61 186.22 735.80 185.23Q736.98 184.25 739.07 184.25L740.13 184.25Q742.05 184.25 743.26 185.20Q744.47 186.14 744.57 187.68L742.38 187.68Q742.34 186.98 741.72 186.53Q741.11 186.07 740.13 186.07L739.07 186.07Q737.97 186.07 737.34 186.58Q736.72 187.08 736.72 187.94Q736.72 189.34 737.99 189.53L741.40 190.01Q744.76 190.49 744.76 193.94Q744.76 195.79 743.55 196.81Q742.34 197.83 740.13 197.83" fill="white" fill-opacity="0.7"/>
<path d="M754.07 201.48L751.84 201.48L753.16 194.14L755.75 194.14" fill="white" fill-opacity="0.7"/>
<path d="M780.45 197.64L778.29 197.64L778.29 184.44L780.45 184.44L780.45 186.96L780.50 186.96Q780.66 185.69 781.58 184.94Q782.49 184.20 784.02 184.20Q786.09 184.20 787.20 185.44Q788.32 186.67 788.32 188.95L788.32 190.08L786.16 190.08L786.16 188.95Q786.16 186.07 783.35 186.07Q781.94 186.07 781.19 186.89Q780.45 187.70 780.45 189.24" fill="white" fill-opacity="0.7"/>
<path d="M797.20 197.88Q794.87 197.88 793.44 196.48Q792.02 195.07 792.02 192.60L792.02 189.48Q792.02 187.01 793.44 185.60Q794.87 184.20 797.20 184.20Q798.76 184.20 799.92 184.82Q801.09 185.45 801.74 186.58Q802.38 187.70 802.38 189.24L802.38 191.59L794.13 191.59L794.13 192.84Q794.13 194.30 794.97 195.16Q795.81 196.01 797.20 196.01Q798.40 196.01 799.18 195.54Q799.96 195.07 800.13 194.28L802.29 194.28Q802.07 195.94 800.68 196.91Q799.29 197.88 797.20 197.88M794.13 189.24L794.13 189.91L800.27 189.91L800.27 189.24Q800.27 187.68 799.47 186.83Q798.66 185.98 797.20 185.98Q795.74 185.98 794.93 186.83Q794.13 187.68 794.13 189.24" fill="white" fill-opacity="0.7"/>
<path d="M816.59 201.96L814.43 201.96L814.43 198.12L814.48 195.12L814.41 195.12Q814.24 196.39 813.28 197.14Q812.32 197.88 810.83 197.88Q808.84 197.88 807.66 196.56Q806.49 195.24 806.49 192.96L806.49 189.10Q806.49 186.82 807.68 185.51Q808.86 184.20 810.83 184.20Q812.32 184.20 813.28 184.93Q814.24 185.66 814.41 186.96L814.43 186.96L814.43 184.44L816.59 184.44L816.59 201.96M811.55 196.01Q812.90 196.01 813.66 195.17Q814.43 194.33 814.43 192.84L814.43 189.24Q814.43 187.75 813.66 186.91Q812.90 186.07 811.55 186.07Q810.18 186.07 809.42 186.77Q808.65 187.46 808.65 189L808.65 193.08Q808.65 194.62 809.42 195.31Q810.18 196.01 811.55 196.01" fill="white" fill-opacity="0.7"/>
<path d="M825.98 197.88Q823.70 197.88 822.33 196.52Q820.96 195.17 820.96 192.84L820.96 184.44L823.12 184.44L823.12 192.84Q823.12 194.28 823.89 195.13Q824.66 195.98 825.98 195.98Q827.32 195.98 828.10 195.13Q828.88 194.28 828.88 192.84L828.88 184.44L831.04 184.44L831.04 192.84Q831.04 195.17 829.65 196.52Q828.26 197.88 825.98 197.88" fill="white" fill-opacity="0.7"/>
<path d="M846.52 197.64L835.24 197.64L835.24 195.67L839.92 195.67L839.92 186.41L835.72 186.41L835.72 184.44L842.08 184.44L842.08 195.67L846.52 195.67L846.52 197.64M840.76 182.06Q839.97 182.06 839.51 181.66Q839.06 181.25 839.06 180.55Q839.06 179.83 839.51 179.41Q839.97 178.99 840.76 178.99Q841.55 178.99 842.01 179.41Q842.46 179.83 842.46 180.55Q842.46 181.25 842.01 181.66Q841.55 182.06 840.76 182.06" fill="white" fill-opacity="0.7"/>
<path d="M852.45 197.64L850.29 197.64L850.29 184.44L852.45 184.44L852.45 186.96L852.50 186.96Q852.66 185.69 853.58 184.94Q854.49 184.20 856.02 184.20Q858.09 184.20 859.20 185.44Q860.32 186.67 860.32 188.95L860.32 190.08L858.16 190.08L858.16 188.95Q858.16 186.07 855.35 186.07Q853.94 186.07 853.19 186.89Q852.45 187.70 852.45 189.24" fill="white" fill-opacity="0.7"/>
<path d="M869.20 197.88Q866.87 197.88 865.44 196.48Q864.02 195.07 864.02 192.60L864.02 189.48Q864.02 187.01 865.44 185.60Q866.87 184.20 869.20 184.20Q870.76 184.20 871.92 184.82Q873.09 185.45 873.74 186.58Q874.38 187.70 874.38 189.24L874.38 191.59L866.13 191.59L866.13 192.84Q866.13 194.30 866.97 195.16Q867.81 196.01 869.20 196.01Q870.40 196.01 871.18 195.54Q871.96 195.07 872.13 194.28L874.29 194.28Q874.07 195.94 872.68 196.91Q871.29 197.88 869.20 197.88M866.13 189.24L866.13 189.91L872.27 189.91L872.27 189.24Q872.27 187.68 871.47 186.83Q870.66 185.98 869.20 185.98Q867.74 185.98 866.93 186.83Q866.13 187.68 866.13 189.24" fill="white" fill-opacity="0.7"/>
<path d="M879.86 197.64L877.84 197.64L877.84 184.44L879.71 184.44L879.71 186.19L879.76 186.19Q879.88 185.30 880.47 184.75Q881.06 184.20 881.97 184.20Q882.83 184.20 883.43 184.70Q884.03 185.21 884.30 186.07L884.32 186.07Q884.49 185.21 885.08 184.70Q885.66 184.20 886.58 184.20Q887.85 184.20 888.60 185.15Q889.36 186.10 889.36 187.61L889.36 197.64L887.34 197.64L887.34 187.58Q887.34 186.79 886.96 186.32Q886.58 185.86 885.90 185.86Q885.26 185.86 884.87 186.31Q884.49 186.77 884.49 187.56L884.49 197.64L882.71 197.64L882.71 187.58Q882.71 186.79 882.33 186.32Q881.94 185.86 881.30 185.86Q880.62 185.86 880.24 186.31Q879.86 186.77 879.86 187.56" fill="white" fill-opacity="0.7"/>
<path d="M898 197.88Q895.67 197.88 894.24 196.48Q892.82 195.07 892.82 192.60L892.82 189.48Q892.82 187.01 894.24 185.60Q895.67 184.20 898 184.20Q899.56 184.20 900.72 184.82Q901.89 185.45 902.54 186.58Q903.18 187.70 903.18 189.24L903.18 191.59L894.93 191.59L894.93 192.84Q894.93 194.30 895.77 195.16Q896.61 196.01 898 196.01Q899.20 196.01 899.98 195.54Q900.76 195.07 900.93 194.28L903.09 194.28Q902.87 195.94 901.48 196.91Q900.09 197.88 898 197.88M894.93 189.24L894.93 189.91L901.07 189.91L901.07 189.24Q901.07 187.68 900.27 186.83Q899.46 185.98 898 185.98Q896.54 185.98 895.73 186.83Q894.93 187.68 894.93 189.24" fill="white" fill-opacity="0.7"/>
<path d="M909.57 197.64L907.41 197.64L907.41 184.44L909.57 184.44L909.57 186.96L909.59 186.96Q909.76 185.64 910.67 184.92Q911.58 184.20 913.10 184.20Q915.09 184.20 916.26 185.42Q917.44 186.65 917.44 188.76L917.44 197.64L915.28 197.64L915.28 189.14Q915.28 187.63 914.52 186.83Q913.77 186.02 912.47 186.02Q911.13 186.02 910.35 186.86Q909.57 187.70 909.57 189.24" fill="white" fill-opacity="0.7"/>
<path d="M931.96 197.64L928.12 197.64Q926.49 197.64 925.50 196.69Q924.52 195.74 924.52 194.16L924.52 186.41L920.73 186.41L920.73 184.44L924.52 184.44L924.52 180.72L926.68 180.72L926.68 184.44L932.08 184.44L932.08 186.41L926.68 186.41L926.68 194.16Q926.68 194.83 927.08 195.25Q927.47 195.67 928.12 195.67L931.96 195.67" fill="white" fill-opacity="0.7"/>
<path d="M941.73 197.83L940.67 197.83Q938.46 197.83 937.25 196.84Q936.04 195.84 936.04 194.02L938.20 194.02Q938.20 194.93 938.85 195.44Q939.50 195.96 940.67 195.96L941.73 195.96Q942.93 195.96 943.59 195.43Q944.25 194.90 944.25 193.94Q944.25 192.24 942.69 192.02L939.04 191.50Q937.70 191.30 936.95 190.38Q936.21 189.46 936.21 187.94Q936.21 186.22 937.40 185.23Q938.58 184.25 940.67 184.25L941.73 184.25Q943.65 184.25 944.86 185.20Q946.07 186.14 946.17 187.68L943.98 187.68Q943.94 186.98 943.32 186.53Q942.71 186.07 941.73 186.07L940.67 186.07Q939.57 186.07 938.94 186.58Q938.32 187.08 938.32 187.94Q938.32 189.34 939.59 189.53L943 190.01Q946.36 190.49 946.36 193.94Q946.36 195.79 945.15 196.81Q943.94 197.83 941.73 197.83" fill="white" fill-opacity="0.7"/>
<path d="M971.42 197.64L968.58 197.64L964.10 184.44L966.42 184.44L969.30 193.32Q969.57 194.11 969.76 194.84Q969.95 195.58 970.05 195.98Q970.17 195.58 970.34 194.84Q970.50 194.11 970.74 193.32L973.62 184.44L975.90 184.44" fill="white" fill-opacity="0.7"/>
<path d="M990.52 197.64L979.24 197.64L979.24 195.67L983.92 195.67L983.92 186.41L979.72 186.41L979.72 184.44L986.08 184.44L986.08 195.67L990.52 195.67L990.52 197.64M984.76 182.06Q983.97 182.06 983.51 181.66Q983.06 181.25 983.06 180.55Q983.06 179.83 983.51 179.41Q983.97 178.99 984.76 178.99Q985.55 178.99 986.01 179.41Q986.46 179.83 986.46 180.55Q986.46 181.25 986.01 181.66Q985.55 182.06 984.76 182.06" fill="white" fill-opacity="0.7"/>
<path d="M997.65 197.88Q995.61 197.88 994.41 196.74Q993.21 195.60 993.21 193.75Q993.21 192.53 993.76 191.62Q994.31 190.70 995.30 190.19Q996.28 189.67 997.55 189.67L1001.63 189.67L1001.63 188.64Q1001.63 186.07 998.82 186.07Q997.58 186.07 996.81 186.53Q996.04 186.98 995.99 187.80L993.83 187.80Q993.95 186.24 995.28 185.22Q996.62 184.20 998.82 184.20Q1001.22 184.20 1002.51 185.35Q1003.79 186.50 1003.79 188.57L1003.79 197.64L1001.66 197.64L1001.66 195.24L1001.61 195.24Q1001.42 196.46 1000.38 197.17Q999.35 197.88 997.65 197.88M998.18 196.06Q999.76 196.06 1000.70 195.29Q1001.63 194.52 1001.63 193.20L1001.63 191.35L997.79 191.35Q996.74 191.35 996.08 191.99Q995.42 192.62 995.42 193.68Q995.42 194.78 996.15 195.42Q996.88 196.06 998.18 196.06" fill="white" fill-opacity="0.7"/>
<path d="M1027.60 197.88Q1025.25 197.88 1023.88 196.51Q1022.51 195.14 1022.51 192.60L1022.51 185.16Q1022.51 182.62 1023.88 181.25Q1025.25 179.88 1027.60 179.88Q1029.95 179.88 1031.32 181.25Q1032.69 182.62 1032.69 185.14L1032.69 192.60Q1032.69 195.14 1031.32 196.51Q1029.95 197.88 1027.60 197.88M1027.60 195.94Q1029.02 195.94 1029.77 195.13Q1030.53 194.33 1030.53 192.84L1030.53 184.92Q1030.53 183.43 1029.77 182.63Q1029.02 181.82 1027.60 181.82Q1026.21 181.82 1025.44 182.63Q1024.67 183.43 1024.67 184.92L1024.67 192.84Q1024.67 194.33 1025.44 195.13Q1026.21 195.94 1027.60 195.94" fill="white" fill-opacity="0.7"/>
<path d="M1039.17 201.96L1037.01 201.96L1037.01 184.44L1039.17 184.44L1039.17 186.96L1039.19 186.96Q1039.36 185.66 1040.32 184.93Q1041.28 184.20 1042.77 184.20Q1044.76 184.20 1045.94 185.51Q1047.11 186.82 1047.11 189.10L1047.11 192.96Q1047.11 195.24 1045.94 196.56Q1044.76 197.88 1042.77 197.88Q1041.28 197.88 1040.32 197.14Q1039.36 196.39 1039.19 195.12L1039.12 195.12L1039.17 198.12L1039.17 201.96M1042.05 196.01Q1043.42 196.01 1044.18 195.29Q1044.95 194.57 1044.95 192.96L1044.95 189.12Q1044.95 187.49 1044.18 186.78Q1043.42 186.07 1042.05 186.07Q1040.73 186.07 1039.95 186.91Q1039.17 187.75 1039.17 189.24L1039.17 192.84Q1039.17 194.33 1039.95 195.17Q1040.73 196.01 1042.05 196.01" fill="white" fill-opacity="0.7"/>
<path d="M1056.40 197.88Q1054.07 197.88 1052.64 196.48Q1051.22 195.07 1051.22 192.60L1051.22 189.48Q1051.22 187.01 1052.64 185.60Q1054.07 184.20 1056.40 184.20Q1057.96 184.20 1059.12 184.82Q1060.29 185.45 1060.94 186.58Q1061.58 187.70 1061.58 189.24L1061.58 191.59L1053.33 191.59L1053.33 192.84Q1053.33 194.30 1054.17 195.16Q1055.01 196.01 1056.40 196.01Q1057.60 196.01 1058.38 195.54Q1059.16 195.07 1059.33 194.28L1061.49 194.28Q1061.27 195.94 1059.88 196.91Q1058.49 197.88 1056.40 197.88M1053.33 189.24L1053.33 189.91L1059.47 189.91L1059.47 189.24Q1059.47 187.68 1058.67 186.83Q1057.86 185.98 1056.40 185.98Q1054.94 185.98 1054.13 186.83Q1053.33 187.68 1053.33 189.24" fill="white" fill-opacity="0.7"/>
<path d="M1067.97 197.64L1065.81 197.64L1065.81 184.44L1067.97 184.44L1067.97 186.96L1067.99 186.96Q1068.16 185.64 1069.07 184.92Q1069.98 184.20 1071.50 184.20Q1073.49 184.20 1074.66 185.42Q1075.84 186.65 1075.84 188.76L1075.84 197.64L1073.68 197.64L1073.68 189.14Q1073.68 187.63 1072.92 186.83Q1072.17 186.02 1070.87 186.02Q1069.53 186.02 1068.75 186.86Q1067.97 187.70 1067.97 189.24" fill="white" fill-opacity="0.7"/>
<path d="M1081.41 197.64L1079.20 197.64L1083.76 180.12L1086.66 180.12L1091.20 197.64L1089.02 197.64L1087.86 192.98L1082.56 192.98L1081.41 197.64M1084.34 185.74L1082.99 191.16L1087.41 191.16L1086.06 185.76Q1085.68 184.22 1085.46 183.19Q1085.25 182.16 1085.20 181.85Q1085.15 182.16 1084.94 183.19Q1084.72 184.22 1084.34 185.74" fill="white" fill-opacity="0.7"/>
<path d="M1096.77 197.64L1094.61 197.64L1094.61 180.12L1100.25 180.12Q1102.70 180.12 1104.15 181.52Q1105.60 182.93 1105.60 185.28Q1105.60 187.63 1104.15 189.04Q1102.70 190.44 1100.25 190.44L1096.77 190.44L1096.77 197.64M1096.77 182.06L1096.77 188.50L1100.25 188.50Q1101.66 188.50 1102.52 187.62Q1103.37 186.74 1103.37 185.28Q1103.37 183.79 1102.52 182.93Q1101.66 182.06 1100.25 182.06" fill="white" fill-opacity="0.7"/>
<path d="M1118.68 197.64L1109.32 197.64L1109.32 195.67L1112.90 195.67L1112.90 182.09L1109.32 182.09L1109.32 180.12L1118.68 180.12L1118.68 182.09L1115.10 182.09L1115.10 195.67L1118.68 195.67" fill="white" fill-opacity="0.7"/>
<path d="M1128.40 197.88Q1127.51 197.88 1126.97 197.35Q1126.43 196.82 1126.43 195.98Q1126.43 195.10 1126.97 194.54Q1127.51 193.99 1128.40 193.99Q1129.29 193.99 1129.83 194.54Q1130.37 195.10 1130.37 195.98Q1130.37 196.82 1129.83 197.35Q1129.29 197.88 1128.40 197.88" fill="white" fill-opacity="0.7"/>
<path d="M112.11 136.06L71.31 136.06L71.31 65.98L112.11 65.98L112.11 74.52L80.72 74.52L80.72 95.36L108.75 95.36L108.75 103.61L80.72 103.61L80.72 127.52L112.11 127.52L112.11 136.06M153.20 136.06L143.70 136.06L143.70 74.62L124.69 74.62L124.69 65.98L172.11 65.98L172.11 74.62L153.20 74.62L153.20 136.06M206.38 137.02Q196.02 137.02 189.87 131.60Q183.73 126.17 183.73 116.67L193.23 116.67Q193.23 122.24 196.78 125.40Q200.34 128.57 206.38 128.57Q212.14 128.57 215.55 125.36Q218.96 122.14 218.96 116.76Q218.96 112.73 216.75 109.71Q214.54 106.68 210.51 105.63L200.14 102.84Q193.33 100.92 189.34 95.88Q185.36 90.84 185.36 83.93Q185.36 78.27 187.90 74Q190.45 69.72 195.06 67.37Q199.66 65.02 205.71 65.02Q211.86 65.02 216.51 67.37Q221.17 69.72 223.76 73.95Q226.35 78.17 226.35 83.74L216.94 83.74Q216.94 79.13 213.82 76.25Q210.70 73.37 205.71 73.37Q200.72 73.37 197.70 76.25Q194.67 79.13 194.67 83.74Q194.67 87.48 196.69 90.03Q198.70 92.57 202.35 93.63L213.01 96.51Q220.21 98.43 224.24 103.85Q228.27 109.28 228.27 116.76Q228.27 122.91 225.58 127.47Q222.90 132.03 217.95 134.52Q213.01 137.02 206.38 137.02M282.70 136.06L244.50 136.06L244.50 127.42L258.80 127.42L258.80 74.62L244.50 74.62L244.50 65.98L282.70 65.98L282.70 74.62L268.40 74.62L268.40 127.42L282.70 127.42L282.70 136.06M365.55 136.06L356.53 136.06L356.53 65.98L369.97 65.98L378.61 96.22L387.63 65.98L401.17 65.98L401.17 136.06L392.05 136.06L392.05 103.90Q392.05 98.81 392.24 92.62Q392.43 86.43 392.77 80.24Q393.10 74.04 393.49 69.05L382.54 104.96L374.48 104.96L363.92 69.92Q364.78 76.92 365.17 85.52Q365.55 94.11 365.55 103.90L365.55 136.06M457.71 136.06L416.91 136.06L416.91 65.98L457.71 65.98L457.71 74.52L426.32 74.52L426.32 95.36L454.35 95.36L454.35 103.61L426.32 103.61L426.32 127.52L457.71 127.52L457.71 136.06M494.77 137.02Q485.07 137.02 479.36 131.60Q473.65 126.17 473.65 116.67L473.65 85.28Q473.65 75.87 479.36 70.44Q485.07 65.02 494.77 65.02Q504.37 65.02 510.08 70.49Q515.79 75.96 515.79 85.28L506.29 85.28Q506.29 79.61 503.22 76.54Q500.14 73.47 494.77 73.47Q489.30 73.47 486.22 76.54Q483.15 79.61 483.15 85.28L483.15 116.67Q483.15 122.43 486.22 125.50Q489.30 128.57 494.77 128.57Q500.14 128.57 503.22 125.50Q506.29 122.43 506.29 116.67L515.79 116.67Q515.79 126.08 510.08 131.55Q504.37 137.02 494.77 137.02M551.60 137.02Q541.71 137.02 535.95 131.40Q530.19 125.79 530.19 116.28L530.19 85.76Q530.19 76.25 535.95 70.64Q541.71 65.02 551.60 65.02Q561.49 65.02 567.25 70.64Q573.01 76.25 573.01 85.76L573.01 116.28Q573.01 122.52 570.37 127.18Q567.73 131.84 562.93 134.43Q558.13 137.02 551.60 137.02M551.60 128.86Q557.17 128.86 560.53 125.36Q563.89 121.85 563.89 116.28L563.89 85.76Q563.89 80.19 560.53 76.68Q557.17 73.18 551.60 73.18Q546.03 73.18 542.67 76.68Q539.31 80.19 539.31 85.76L539.31 116.28Q539.31 121.85 542.67 125.36Q546.03 128.86 551.60 128.86M551.60 106.40Q548.91 106.40 547.33 104.91Q545.74 103.42 545.74 100.73Q545.74 98.04 547.33 96.65Q548.91 95.26 551.60 95.26Q554.29 95.26 555.92 96.65Q557.55 98.04 557.55 100.73Q557.55 103.42 555.92 104.91Q554.29 106.40 551.60 106.40M632.53 136.06L588.94 136.06L588.94 127.42L607.66 127.42L607.66 74.52L588.85 88.54L588.85 77.79L604.78 65.98L617.17 65.98L617.17 127.42L632.53 127.42L632.53 136.06M666.80 137.02Q656.91 137.02 651.15 131.40Q645.39 125.79 645.39 116.28L645.39 85.76Q645.39 76.25 651.15 70.64Q656.91 65.02 666.80 65.02Q676.69 65.02 682.45 70.64Q688.21 76.25 688.21 85.76L688.21 116.28Q688.21 122.52 685.57 127.18Q682.93 131.84 678.13 134.43Q673.33 137.02 666.80 137.02M666.80 128.86Q672.37 128.86 675.73 125.36Q679.09 121.85 679.09 116.28L679.09 85.76Q679.09 80.19 675.73 76.68Q672.37 73.18 666.80 73.18Q661.23 73.18 657.87 76.68Q654.51 80.19 654.51 85.76L654.51 116.28Q654.51 121.85 657.87 125.36Q661.23 128.86 666.80 128.86M666.80 106.40Q664.11 106.40 662.53 104.91Q660.94 103.42 660.94 100.73Q660.94 98.04 662.53 96.65Q664.11 95.26 666.80 95.26Q669.49 95.26 671.12 96.65Q672.75 98.04 672.75 100.73Q672.75 103.42 671.12 104.91Q669.49 106.40 666.80 106.40M804.08 136.06L761.17 136.06L761.17 127.32L784.98 102.17Q789.58 97.37 791.55 93.39Q793.52 89.40 793.52 85.56Q793.52 80.09 790.35 76.78Q787.18 73.47 781.81 73.47Q776.24 73.47 772.98 76.83Q769.71 80.19 769.71 85.95L760.21 85.95Q760.40 76.35 766.30 70.68Q772.21 65.02 781.81 65.02Q791.60 65.02 797.41 70.59Q803.22 76.16 803.22 85.47Q803.22 90.56 800.53 96.08Q797.84 101.60 791.41 108.22L772.78 127.42L804.08 127.42L804.08 136.06M882.51 136.06L872.82 136.06L890.96 65.98L903.54 65.98L921.58 136.06L911.89 136.06L907.47 117.82L886.93 117.82L882.51 136.06M893.94 88.92L888.85 109.95L905.55 109.95L900.56 89.02Q899.12 83.26 898.26 79.23Q897.39 75.20 897.20 73.76Q897.01 75.20 896.14 79.23Q895.28 83.26 893.94 88.92M943.95 136.06L934.45 136.06L934.45 65.98L957.20 65.98Q963.92 65.98 968.82 68.57Q973.71 71.16 976.40 75.82Q979.09 80.48 979.09 86.91Q979.09 93.24 976.40 97.90Q973.71 102.56 968.77 105.15Q963.82 107.74 957.20 107.74L943.95 107.74L943.95 136.06M943.95 74.43L943.95 99.29L957.20 99.29Q962.77 99.29 966.03 95.88Q969.30 92.48 969.30 86.91Q969.30 81.24 966.03 77.84Q962.77 74.43 957.20 74.43L943.95 74.43M1001.55 136.06L992.05 136.06L992.05 65.98L1014.80 65.98Q1021.52 65.98 1026.42 68.57Q1031.31 71.16 NaN 75.82Q1036.69 80.48 1036.69 86.91Q1036.69 93.24 NaN 97.90Q1031.31 102.56 1026.37 105.15Q1021.42 107.74 1014.80 107.74L1001.55 107.74L1001.55 136.06M1001.55 74.43L1001.55 99.29L1014.80 99.29Q1020.37 99.29 1023.63 95.88Q1026.90 92.48 1026.90 86.91Q1026.90 81.24 1023.63 77.84Q1020.37 74.43 1014.80 74.43L1001.55 74.43M1059.15 136.06L1049.65 136.06L1049.65 65.98L1072.40 65.98Q1079.12 65.98 1084.02 68.57Q1088.91 71.16 1091.60 75.82Q1094.29 80.48 1094.29 86.91Q1094.29 93.24 1091.60 97.90Q1088.91 102.56 1083.97 105.15Q1079.02 107.74 1072.40 107.74L1059.15 107.74L1059.15 136.06M1059.15 74.43L1059.15 99.29L1072.40 99.29Q1077.97 99.29 1081.23 95.88Q1084.50 92.48 1084.50 86.91Q1084.50 81.24 1081.23 77.84Q1077.97 74.43 1072.40 74.43L1059.15 74.43M1116.75 136.06L1107.25 136.06L1107.25 65.98L1116.75 65.98L1116.75 95.74L1126.54 95.74L1141.52 65.98L1151.89 65.98L1134.90 99.68L1152.75 136.06LNaN 136.06L1126.35 104.09L1116.75 104.09L1116.75 136.06M1185.58 137.02Q1175.89 137.02 1170.18 131.60Q1164.46 126.17 1164.46 116.67L1164.46 85.28Q1164.46 75.87 1170.18 70.44Q1175.89 65.02 1185.58 65.02Q1195.18 65.02 1200.90 70.49Q1206.61 75.96 1206.61 85.28L1197.10 85.28Q1197.10 79.61 1194.03 76.54Q1190.96 73.47 1185.58 73.47Q1180.11 73.47 1177.04 76.54Q1173.97 79.61 1173.97 85.28L1173.97 116.67Q1173.97 122.43 1177.04 125.50Q1180.11 128.57 1185.58 128.57Q1190.96 128.57 1194.03 125.50Q1197.10 122.43 1197.10 116.67L1197.10 107.55L1183.47 107.55L1183.47 99.10L1206.61 99.10L1206.61 116.67Q1206.61 126.08 1200.90 131.55Q1195.18 137.02 1185.58 137.02M1229.55 136.06L1220.53 136.06L1220.53 65.98L1233.97 65.98L1242.61 96.22L1251.63 65.98L1265.17 65.98L1265.17 136.06L1256.05 136.06L1256.05 103.90Q1256.05 98.81 1256.24 92.62Q1256.43 86.43 1256.77 80.24Q1257.10 74.04 1257.49 69.05L1246.54 104.96L1238.48 104.96L1227.92 69.92Q1228.78 76.92 1229.17 85.52Q1229.55 94.11 1229.55 103.90L1229.55 136.06M1300.78 137.02Q1291.09 137.02 1285.38 131.60Q1279.66 126.17 1279.66 116.67L1279.66 85.28Q1279.66 75.87 1285.38 70.44Q1291.09 65.02 1300.78 65.02Q1310.38 65.02 1316.10 70.49Q1321.81 75.96 1321.81 85.28L1312.30 85.28Q1312.30 79.61 1309.23 76.54Q1306.16 73.47 1300.78 73.47Q1295.31 73.47 1292.24 76.54Q1289.17 79.61 1289.17 85.28L1289.17 116.67Q1289.17 122.43 1292.24 125.50Q1295.31 128.57 1300.78 128.57Q1306.16 128.57 1309.23 125.50Q1312.30 122.43 1312.30 116.67L1312.30 107.55L1298.67 107.55L1298.67 99.10L1321.81 99.10L1321.81 116.67Q1321.81 126.08 1316.10 131.55Q1310.38 137.02 1300.78 137.02M1344.75 136.06L1335.73 136.06L1335.73 65.98L1349.17 65.98L1357.81 96.22L1366.83 65.98L1380.37 65.98L1380.37 136.06L1371.25 136.06L1371.25 103.90Q1371.25 98.81 1371.44 92.62Q1371.63 86.43 1371.97 80.24Q1372.30 74.04 1372.69 69.05L1361.74 104.96L1353.68 104.96L1343.12 69.92Q1343.98 76.92 1344.37 85.52Q1344.75 94.11 1344.75 103.90L1344.75 136.06M1420.40 136.06L1410.90 136.06L1410.90 74.62L1391.89 74.62L1391.89 65.98L1439.31 65.98L1439.31 74.62L1420.40 74.62" fill="url(#paint2_linear_0_1)"/>
<g id="Group 1">
<rect id="Rectangle 1" x="26" y="168" width="12" height="184" rx="5" fill="url(#paint3_linear_0_1)" fill-opacity="0.9"/>
</g>
<g id="Group 1_2">
<rect id="Rectangle 2" x="26" y="38" width="12" height="119" rx="5" fill="url(#paint4_linear_0_1)" fill-opacity="0.9"/>
</g>
<ellipse id="Ellipse 1" cx="148.5" cy="573" rx="215.5" ry="214" fill="url(#paint5_linear_0_1)" fill-opacity="0.4"/>
<rect id="Rectangle 3" x="1229" y="48" width="300" height="300" rx="25" fill="#FFFBFB" fill-opacity="0.9"/>
<g id="placeholder-logo"><g transform="translate(1229,48) translate(0.0,60.0) scale(1.2000)"><g fill="#666666">
  <path d="m88.05,27.65c-3.15,4 -3.2,51.2 -0.05,54.35c2.75,2.75 71.7,3.15 74.45,0.45c2.85,-2.9 2.3,-53.85 -0.65,-55.9c-1.95,-1.35 -7.15,-1.55 -36.95,-1.55l-34.7,0l-2.1,2.65zm69.45,3.35c0.65,0 1,8.6 1,23.75l0,23.75l-33,0l-33,0l-0.25,-23c-0.15,-12.6 -0.1,-23.45 0.15,-24.1c0.35,-0.85 8.9,-1.05 32.25,-0.75c17.55,0.2 32.3,0.35 32.85,0.35z"/>
  <path d="m99.15,37.3c-6.85,7.35 4.25,17.35 11.4,10.25c1.35,-1.35 2.45,-3.65 2.45,-5.05c0,-6.45 -9.35,-9.95 -13.85,-5.2z"/>
  <path d="m135,42.5c-0.7,0.85 -5.25,5.15 -10.1,9.6l-8.85,8.1l-3.2,-3.2l-3.15,-3.15l-6.35,6.3c-5.55,5.5 -6.35,6.75 -6.35,10.05l0,3.8l28.5,0l28.5,0l0,-8.6l0,-8.55l-8.15,-7.7c-9.35,-8.85 -9.15,-8.7 -10.85,-6.65zm7.25,15.2c0.95,0.9 1.75,2.9 1.75,4.45c6.35,-5.05 4.75,-7.15 4.9,-11.55c0.95,0 0,0 0,0l-6.65,7.1z"/>
  <path d="m53.65,110.75c0.1,4.8 0.45,8.65 0.75,8.5c0.35,-0.15 1.3,-0.25 2.1,-0.25c1.1,0 1.5,-1.2 1.5,-4.75l0,-4.75l3.25,5c4.9,7.5 6.2,6.75 6.55,-3.75c0.25,-8.15 0.15,-8.75 -1.7,-8.75c-1.65,0 -2.05,0.8 -2.3,4.75l-0.3,4.75l-2.8,-4.75c-4.85,-8.25 -7.25,-6.9 -7.05,4z"/>
  <path d="m91,108.9c0,9.65 0.3,10.1 6.1,10.1c5.8,0 7.15,-2.65 1.65,-3.2l-3.25,-0.3l-0.3,-6.75c-0.25,-5.95 -0.55,-6.75 -2.25,-6.75c-1.75,0 -1.95,0.7 -1.95,6.9z"/>
  <path d="m151,102.45c0,0.25 1,2.15 2.25,4.2c1.2,2.1 2.45,5.8 2.75,8.25c0.65,5.9 4,6.95 4,1.25c0.05,-2.1 1.25,-5.85 2.95,-8.9l2.9,-5.25l-2.5,0c-1.8,0 -2.8,0.85 -3.75,3.1l-1.3,3.05l-1.25,-3.05c-1.1,-2.6 -6.05,-4.8 -6.05,-2.65z"/>
  <path d="m191,107.45c0,9.05 3.4,8.85 4.25,-0.2c0.45,-5 0.35,-5.25 -1.9,-5.25c-2.2,0 -2.35,0.4 -2.35,5.45z"/>
  <path d="m180.8,104.75c-1.3,5.35 0.65,13.6 3.45,14.35c2.3,0.6 2.75,0.4 2.75,-1.2c0,-1.05 -0.45,-1.9 -1,-1.9c-0.55,0 -1,-1.6 -1,-3.5c0,-1.95 0.45,-3.5 1,-3.5c0.55,0 1,-0.7 1,-1.5c0,-0.85 -0.45,-1.5 -1,-1.5c-0.55,0 -1,-0.7 -1,-1.5c0,-2.1 -3.65,-1.9 -4.2,0.25z"/>
  <path d="m71.55,106.55c-2.2,2.25 -2.05,9.7 0.3,11.8c4.5,4.1 10.15,0.75 10.15,-6.1c0,-4.85 -2,-7.25 -6,-7.25c-1.55,0 -3.55,0.7 -4.45,1.55zm6.25,5.8c0.25,3.05 0,3.65 -1.6,3.65c-2.3,0 -3.25,-2.65 -2.05,-5.85c1.25,-3.35 3.3,-2.1 3.65,2.2z"/>
  <path d="m105.75,106.1c-2.5,1.45 -2.45,9.95 0.1,12.25c4.3,3.9 10.15,0.35 10.15,-6.2c0,-6 -5.15,-9.05 -10.25,-6.05zm6.05,6.25c0.25,3.05 0,3.65 -1.6,3.65c-2.3,0 -3.25,-2.65 -2.05,-5.85c1.25,-3.35 3.3,-2.1 3.65,2.2z"/>
  <path d="m119.2,106.2c-3.8,3.8 -0.4,12.55 4.4,11.35c1.9,-0.45 2.45,-0.3 2.15,0.65c-0.25,0.7 -1.55,1.2 -2.85,1.1c-4.05,-0.3 -5.35,0.45 -3.85,2.25c0.85,1.05 2.6,1.45 5.35,1.25l4.1,-0.3l0.3,-8.75l0.3,-8.75l-4.35,0c-2.4,0 -4.9,0.55 -5.55,1.2zm6.6,4.45c0.4,2.85 -2.15,4.85 -3.75,2.95c-0.9,-1.1 -0.9,-2 -0.05,-3.6c1.35,-2.5 3.4,-2.15 3.8,0.65z"/>
  <path d="m133.55,106.55c-2.2,2.25 -2.05,9.7 0.3,11.8c4.5,4.1 10.15,0.75 10.15,-6.1c0,-4.85 -2,-7.25 -6,-7.25c-1.55,0 -3.55,0.7 -4.45,1.55zm6.25,5.8c0.25,3.05 0,3.65 -1.6,3.65c-2.3,0 -3.25,-2.65 -2.05,-5.85c1.25,-3.35 3.3,-2.1 3.65,2.2z"/>
  <path d="m167.65,106.85c-3.9,4.3 -0.75,13.15 4.7,13.15c2.4,0 5.65,-2.75 5.65,-4.85c0,-1.4 -2.65,-1.55 -3.5,-0.15c-0.95,1.55 -4.5,1.15 -4.5,-0.5c0,-1.1 1.1,-1.5 4,-1.5c3.15,0 4,-0.35 4,-1.8c0,-5.3 -6.85,-8.25 -10.35,-4.35z"/>
  <path d="m191,117.5c0,2.15 0.4,2.6 2.25,2.3c1.5,-0.2 2.25,-1 2.25,-2.3c0,-1.3 -0.75,-2.1 -2.25,-2.3c-1.85,-0.3 -2.25,0.15 -2.25,2.3z"/>
 </g></g></g>
</g>
<defs>
<linearGradient id="paint0_linear_0_1" x1="0" y1="198" x2="1584" y2="198" gradientUnits="userSpaceOnUse">
<stop stop-color="#3D052C"/>
<stop offset="1"/>
</linearGradient>
<linearGradient id="paint1_linear_0_1" x1="323" y1="-224" x2="323" y2="352" gradientUnits="userSpaceOnUse">
<stop stop-color="#28F6F2" stop-opacity="0.4"/>
<stop offset="1" stop-color="#17908E" stop-opacity="0.7"/>
</linearGradient>
<linearGradient id="paint2_linear_0_1" x1="148.5" y1="38" x2="148.5" y2="140" gradientUnits="userSpaceOnUse">
<stop stop-color="white"/>
<stop offset="1" stop-color="#999999"/>
</linearGradient>
<linearGradient id="paint3_linear_0_1" x1="38" y1="260" x2="26" y2="260" gradientUnits="userSpaceOnUse">
<stop stop-color="#D9D9D9"/>
<stop offset="1" stop-color="#737373"/>
</linearGradient>
<linearGradient id="paint4_linear_0_1" x1="38" y1="97.5" x2="26" y2="97.5" gradientUnits="userSpaceOnUse">
<stop stop-color="#D9D9D9"/>
<stop offset="1" stop-color="#737373"/>
</linearGradient>
<linearGradient id="paint5_linear_0_1" x1="27.5" y1="434.5" x2="148.5" y2="787" gradientUnits="userSpaceOnUse">
<stop stop-color="#2E21BC"/>
<stop offset="1" stop-color="#150F56"/>
</linearGradient>
<clipPath id="clip0_0_1">
<rect width="1584" height="396" fill="white"/>
</clipPath>
</defs>
</svg>
